HIERARCHY
ROOT Hips
{
	OFFSET -3.958830 18.904000 13.208200
	CHANNELS 6 Xposition Yposition Zposition Zrotation Yrotation Xrotation 
	JOINT LHipJoint
	{
		OFFSET 0.000000 0.000000 0.000000
		CHANNELS 3 Zrotation Yrotation Xrotation
		JOINT LeftUpLeg
		{
			OFFSET 1.800000 -1.400000 0.085000
			CHANNELS 3 Zrotation Yrotation Xrotation
			JOINT LeftLeg
			{
				OFFSET 2.215000 -6.000000 0.000000
				CHANNELS 3 Zrotation Yrotation Xrotation
				JOINT LeftFoot
				{
					OFFSET 2.500000 -6.900000 0.000000
					CHANNELS 3 Zrotation Yrotation Xrotation
					JOINT LeftToeBase
					{
						OFFSET 0.200000 -0.500000 1.950000
						CHANNELS 3 Zrotation Yrotation Xrotation
						End Site
						{
							OFFSET 0.000000 0.000000 0.000000
						}
					}
				}
			}
		}
	}
	JOINT RHipJoint
	{
		OFFSET 0.000000 0.000000 0.000000
		CHANNELS 3 Zrotation Yrotation Xrotation
		JOINT RightUpLeg
		{
			OFFSET -1.800000 -1.400000 0.085000
			CHANNELS 3 Zrotation Yrotation Xrotation
			JOINT RightLeg
			{
				OFFSET -2.215000 -6.000000 0.000000
				CHANNELS 3 Zrotation Yrotation Xrotation
				JOINT RightFoot
				{
					OFFSET -2.500000 -6.900000 0.000000
					CHANNELS 3 Zrotation Yrotation Xrotation
					JOINT RightToeBase
					{
						OFFSET -0.200000 -0.500000 1.950000
						CHANNELS 3 Zrotation Yrotation Xrotation
						End Site
						{
							OFFSET 0.000000 0.000000 0.000000
						}
					}
				}
			}
		}
	}
	JOINT LowerBack
	{
		OFFSET 0.000000 0.000000 0.000000
		CHANNELS 3 Zrotation Yrotation Xrotation
		JOINT Spine
		{
			OFFSET -0.087000 1.940000 -0.288900
			CHANNELS 3 Zrotation Yrotation Xrotation
			JOINT Spine1
			{
				OFFSET 0.000000 1.950000 0.060000
				CHANNELS 3 Zrotation Yrotation Xrotation
				JOINT Neck
				{
					OFFSET 0.000000 0.000000 0.000000
					CHANNELS 3 Zrotation Yrotation Xrotation
					JOINT Neck1
					{
						OFFSET 0.000000 1.600000 0.340000
						CHANNELS 3 Zrotation Yrotation Xrotation
						JOINT Head
						{
							OFFSET 0.000000 1.667000 -0.240000
							CHANNELS 3 Zrotation Yrotation Xrotation
							End Site
							{
								OFFSET 0.000000 0.000000 0.000000
							}
						}
					}
				}
				JOINT LeftShoulder
				{
					OFFSET 0.000000 0.000000 0.000000
					CHANNELS 3 Zrotation Yrotation Xrotation
					JOINT LeftArm
					{
						OFFSET 2.700000 1.550000 -0.730000
						CHANNELS 3 Zrotation Yrotation Xrotation
						JOINT LeftForeArm
						{
							OFFSET 5.450000 0.000000 0.000000
							CHANNELS 3 Zrotation Yrotation Xrotation
							JOINT LeftHand
							{
								OFFSET 3.450000 0.000000 0.000000
								CHANNELS 3 Zrotation Yrotation Xrotation
								JOINT LeftHandIndex1
								{
									OFFSET 0.750000 0.000000 0.000000
									CHANNELS 3 Zrotation Yrotation Xrotation
									End Site
									{
										OFFSET 0.000000 0.000000 0.000000
									}
								}
							}
						}
					}
				}
				JOINT RightShoulder
				{
					OFFSET 0.000000 0.000000 0.000000
					CHANNELS 3 Zrotation Yrotation Xrotation
					JOINT RightArm
					{
						OFFSET -2.700000 1.550000 -0.730000
						CHANNELS 3 Zrotation Yrotation Xrotation
						JOINT RightForeArm
						{
							OFFSET -5.450000 0.000000 0.000000
							CHANNELS 3 Zrotation Yrotation Xrotation
							JOINT RightHand
							{
								OFFSET -3.450000 0.000000 0.000000
								CHANNELS 3 Zrotation Yrotation Xrotation
								JOINT RightHandIndex1
								{
									OFFSET -0.750000 0.000000 0.000000
									CHANNELS 3 Zrotation Yrotation Xrotation
									End Site
									{
										OFFSET 0.000000 0.000000 0.000000
									}
								}
							}
						}
					}
				}
			}
		}
	}
}
MOTION
Frames: 8
Frame Time: 0.016667
0.919680 16.850070 -3.103160 -9.792272 -31.295575 -3.683132 -15.308331 14.514009 2.799341 7.158311 -0.233117 -4.827342 -5.725012 9.442666 28.473704 0.070358 6.217776 2.314631 0.642280 0.600940 0.476970 17.962961 -11.080205 2.352831 -5.338295 2.381174 -20.169026 -4.364843 -3.239193 32.001862 -0.348743 -3.926324 2.833771 0.457640 -0.097600 0.085730 -2.246425 -3.249967 -7.284736 -0.241448 -5.973304 11.564011 3.853813 -7.828880 17.449208 0.624748 6.690387 -12.894669 9.758260 -6.788211 52.473766 3.112060 -1.863990 -9.293140 -18.990853 -30.510936 9.210842 -43.925560 -43.089076 15.222025 -28.435772 -69.743597 19.004909 -3.286202 3.334924 0.297920 -0.045420 0.174510 0.140420 19.685483 24.767009 6.022615 52.902180 35.368951 6.948546 26.486402 54.932622 10.321068 2.161484 -1.600720 -0.023420 0.181500 -0.223220 -0.151620 
0.907630 16.837050 -3.097500 -10.053281 -32.361375 -3.891474 -15.320014 14.556928 2.806505 7.501686 -0.138892 -4.485275 -6.020440 9.745463 28.820889 0.098685 6.359422 2.268599 0.638020 0.599450 0.480520 17.956302 -11.015523 2.364572 -4.963930 2.566520 -20.191508 -4.788858 -3.049590 32.428286 -0.357189 -3.958538 2.826441 0.457680 -0.095340 0.087390 -2.195990 -3.410088 -7.318789 -0.515429 -6.336200 11.995476 3.401203 -8.242401 17.974997 0.631963 6.731646 -12.944178 9.849624 -6.284273 52.191988 2.780390 -1.086040 -9.323820 -19.055808 -31.028033 9.261221 -41.692643 -43.269535 14.788366 -28.222522 -73.457935 19.991848 -3.266630 3.370890 0.295630 -0.036260 0.174050 0.137890 19.710901 25.004051 6.237612 53.041843 36.297333 7.359885 26.146076 57.671791 10.822448 2.135418 -1.606990 -0.027150 0.181070 -0.223020 -0.156540 
0.896670 16.817540 -3.095340 -10.691829 -34.105123 -4.212760 -15.350376 14.640575 2.821057 8.229089 -0.047000 -4.061757 -6.553759 10.297824 29.577959 0.142851 6.624554 2.175424 0.659670 0.631700 0.491600 17.938599 -10.869035 2.381580 -4.507428 2.886421 -20.392552 -5.165592 -2.870202 33.298262 -0.384905 -4.033665 2.797848 0.480230 -0.096990 0.090700 -2.086480 -3.771252 -7.388317 -0.803301 -6.773347 12.752016 3.206143 -8.854984 18.940912 0.369930 6.505596 -12.861232 9.068385 -5.439079 52.232574 2.732830 -0.423330 -9.998880 -18.035662 -32.068393 8.742846 -39.029211 -45.236968 14.600891 -16.511275 -76.198943 12.165231 -3.210395 3.268620 0.298380 -0.034510 0.183660 0.146630 19.205141 25.662757 6.732125 52.336407 37.596353 7.436948 25.057273 62.682910 11.391438 2.072638 -1.627193 -0.026260 0.188710 -0.233350 -0.156850 
0.872430 16.796470 -3.098170 -11.586014 -36.256270 -4.469703 -15.402443 14.770992 2.833229 9.278799 0.070349 -3.622518 -6.971093 10.916207 30.507079 0.204492 6.925397 2.071194 0.677090 0.661000 0.503320 17.901038 -10.672713 2.402703 -3.908023 3.245075 -20.481296 -5.447893 -2.645793 33.770716 -0.400883 -4.042455 2.795834 0.498130 -0.099790 0.086620 -1.882886 -4.262046 -7.487929 -1.671316 -7.418620 13.835662 2.935768 -9.692347 19.877905 0.270878 6.135218 -12.762595 8.162693 -4.132055 52.322009 2.797980 0.466640 -10.548610 -17.666777 -33.676851 8.366378 -35.052265 -45.711950 12.847549 0.906940 -78.269247 -0.666690 -3.183010 3.045292 0.297460 -0.036660 0.191590 0.152770 19.102638 27.112040 7.184027 50.353824 39.777237 8.207294 24.710507 67.131736 12.599163 2.015921 -1.630905 -0.025110 0.196600 -0.245450 -0.155840 
0.840250 16.766780 -3.104440 -12.584315 -38.646614 -4.336815 -15.461196 14.862218 2.850991 10.507330 0.131332 -3.414869 -7.711356 11.718708 31.510807 0.274162 7.291402 1.943653 0.687290 0.684080 0.502670 17.869718 -10.446805 2.418270 -3.223831 3.605992 -20.738555 -5.718270 -2.376632 33.745246 -0.395686 -3.994795 2.815467 0.517160 -0.088320 0.093470 -1.687140 -4.725362 -7.570396 -2.650396 -8.067400 14.761809 2.616471 -10.642122 20.913158 0.214831 5.895162 -12.509633 7.725449 -2.437403 51.071784 2.744220 1.831210 -10.892950 -17.260602 -35.240004 7.929637 -30.335830 -45.415976 10.162900 30.696113 -78.746652 -22.263391 -3.198854 2.458175 0.280880 -0.019010 0.185530 0.159570 18.891539 28.580013 7.659939 48.683823 42.777035 9.495077 20.884253 71.767578 11.737963 1.910496 -1.617351 -0.023870 0.194390 -0.249810 -0.153770 
0.804410 16.737790 -3.108100 -13.649083 -41.251947 -4.002566 -15.522921 14.902028 2.879543 11.805640 0.133200 -3.161988 -8.749432 12.631894 32.367751 0.348097 7.684393 1.810646 0.690280 0.696940 0.495330 17.845049 -10.219894 2.429134 -2.285122 3.880133 -21.008017 -6.208804 -1.991307 33.088081 -0.375897 -3.852625 2.870113 0.530970 -0.071740 0.096730 -1.502363 -5.109777 -7.630783 -3.595363 -8.386011 15.334057 2.959905 -11.205176 21.789279 0.066910 5.296285 -12.267022 6.651633 -0.671346 50.437732 2.697550 2.887540 -11.107790 -15.838223 -35.662804 7.393547 -26.489036 -44.763567 7.960853 52.380716 -76.679600 -36.192661 -3.226465 1.830706 0.268640 -0.003680 0.176830 0.165260 17.877941 29.760940 7.918717 46.600039 45.098202 10.253716 14.293553 77.125366 8.513523 1.771518 -1.561068 -0.027270 0.200300 -0.246910 -0.150270 
0.759790 16.707970 -3.104950 -14.515850 -43.109390 -3.526517 -15.602520 14.981121 2.892711 12.794009 0.167219 -3.010111 -9.394819 13.278589 32.898030 0.396514 7.985094 1.721779 0.682680 0.697310 0.477300 17.805728 -9.981522 2.406622 -1.736809 4.045206 -21.219839 -6.390647 -1.704626 31.935149 -0.327549 -3.671245 2.943462 0.547030 -0.031860 0.101670 -1.277957 -5.598892 -7.659792 -4.611310 -8.903455 15.029141 3.741046 -12.107810 22.893588 -0.450186 4.441358 -12.095332 4.819059 0.937557 49.844673 2.050210 3.552830 -10.536230 -13.001967 -35.745787 6.878957 -23.812177 -45.676545 8.224068 64.920534 -71.267931 -41.568432 -3.409558 1.650275 0.233500 0.035200 0.146740 0.175220 16.125910 30.768442 8.046983 45.177634 46.659513 10.302676 -2.004665 82.390089 -3.723157 1.566497 -1.296748 -0.037320 0.212300 -0.238150 -0.141230 
0.707780 16.691710 -3.096060 -15.330536 -44.352656 -3.131534 -15.680570 15.109050 2.895083 13.632982 0.162976 -3.027627 -9.332326 13.737746 33.989925 0.427291 8.266014 1.631198 0.678730 0.695830 0.476340 17.757836 -9.775496 2.361456 -1.402474 4.068785 -20.979967 -6.496915 -1.463300 30.417941 -0.280771 -3.454920 3.026983 0.561380 -0.009090 0.102470 -1.029047 -6.131238 -7.688161 -5.753879 -9.577621 14.836914 4.527807 -13.219247 23.725815 -1.182223 3.734794 -12.098060 3.280430 2.226262 49.762507 1.265990 4.295140 -10.183380 -10.554102 -36.182628 6.133968 -20.657200 -45.392636 7.330854 67.703796 -68.286796 -41.678372 -3.632572 1.831563 0.216390 0.062920 0.127690 0.176700 15.187305 31.823504 8.408320 45.278141 48.123925 9.920069 -27.004316 83.814968 -23.755692 1.308469 -0.518157 -0.051760 0.224220 -0.231970 -0.144350 
